<?xml version="1.0" encoding="utf-8"?>
<!-- Generator: Adobe Illustrator 15.0.0, SVG Export Plug-In . SVG Version: 6.00 Build 0)  -->
<!DOCTYPE svg PUBLIC "-//W3C//DTD SVG 1.1//EN" "http://www.w3.org/Graphics/SVG/1.1/DTD/svg11.dtd">
<svg version="1.1" id="Emoji_neutral" xmlns="http://www.w3.org/2000/svg" xmlns:xlink="http://www.w3.org/1999/xlink" x="0px"
	 y="0px" width="512px" height="566.972px" viewBox="0 229.604 512 566.972" enable-background="new 0 229.604 512 566.972"
	 xml:space="preserve">
<g>
	<path fill="#E87352" d="M197.918,600.169c16.627,11.179,36.595,17.716,58.082,17.716c57.485,0,104.242-46.772,104.242-104.247
		c0-21.487-6.537-41.466-17.716-58.077L197.918,600.169z M197.918,600.169"/>
	<path fill="#E87352" d="M256,409.38c-57.484,0-104.252,46.772-104.252,104.257c0,24.332,8.413,46.73,22.43,64.479l146.316-146.29
		C302.715,417.788,280.337,409.38,256,409.38L256,409.38z M256,409.38"/>
	<path fill="#E87352" d="M256,279.031c-129.26,0-234.057,104.797-234.057,234.052c0,129.249,104.797,234.066,234.057,234.066
		s234.058-104.802,234.058-234.066C490.058,383.828,385.26,279.031,256,279.031L256,279.031z M256,650.252
		c-75.326,0-136.614-61.293-136.614-136.614c0-75.337,61.288-136.63,136.614-136.63c75.348,0,136.614,61.293,136.614,136.63
		C392.614,588.959,331.348,650.252,256,650.252L256,650.252z M256,650.252"/>
</g>
</svg>
