<?xml version="1.0" encoding="utf-8"?>
<!-- Generator: Adobe Illustrator 15.0.0, SVG Export Plug-In . SVG Version: 6.00 Build 0)  -->
<!DOCTYPE svg PUBLIC "-//W3C//DTD SVG 1.1//EN" "http://www.w3.org/Graphics/SVG/1.1/DTD/svg11.dtd">
<svg version="1.1" id="Emoji_neutral" xmlns="http://www.w3.org/2000/svg" xmlns:xlink="http://www.w3.org/1999/xlink" x="0px"
	 y="0px" width="512px" height="566.972px" viewBox="0 229.604 512 566.972" enable-background="new 0 229.604 512 566.972"
	 xml:space="preserve">
<path fill="#67B0D1" d="M256,266.24C120.269,266.24,10.24,376.269,10.24,512S120.269,757.76,256,757.76
	c135.706,0,245.76-110.028,245.76-245.785C501.76,376.269,391.706,266.24,256,266.24z M256,706.534
	c-107.443,0-194.56-87.091-194.56-194.56c0-107.443,87.091-194.56,194.56-194.56c107.443,0,194.56,87.091,194.56,194.56
	S363.443,706.534,256,706.534z M320,416.025c-21.197,0-38.4,20.045-38.4,44.774s17.203,44.8,38.4,44.8
	c21.223,0,38.4-20.044,38.4-44.8C358.4,436.045,341.223,416.025,320,416.025z M192.025,505.6c21.197,0,38.375-20.044,38.375-44.8
	c0-24.755-17.203-44.8-38.4-44.8s-38.4,20.045-38.4,44.8C153.6,485.556,170.803,505.6,192.025,505.6z M332.8,569.6H179.2
	c-10.599,0-19.2,8.602-19.2,19.2s8.602,19.2,19.2,19.2h153.6c10.599,0,19.2-8.602,19.2-19.2C352,578.176,343.424,569.6,332.8,569.6z
	"/>
</svg>
