<?xml version="1.0" encoding="utf-8"?>
<!-- Generator: Adobe Illustrator 15.0.0, SVG Export Plug-In . SVG Version: 6.00 Build 0)  -->
<!DOCTYPE svg PUBLIC "-//W3C//DTD SVG 1.1//EN" "http://www.w3.org/Graphics/SVG/1.1/DTD/svg11.dtd">
<svg version="1.1" id="List" xmlns="http://www.w3.org/2000/svg" xmlns:xlink="http://www.w3.org/1999/xlink" x="0px" y="0px"
	 width="512px" height="333px" viewBox="0 344.5 512 333" enable-background="new 0 344.5 512 333" xml:space="preserve">
<g>
	<path fill="#FFFFFF" d="M394.044,412.404c0,12-9.729,21.731-21.731,21.731H159.374c-12,0-21.731-9.731-21.731-21.731l0,0
		c0-12,9.731-21.731,21.731-21.731h212.939C384.315,390.673,394.044,400.405,394.044,412.404L394.044,412.404z"/>
	<path fill="#FFFFFF" d="M394.044,502.895c0,12.004-9.729,21.731-21.731,21.731H159.374c-12,0-21.731-9.728-21.731-21.731l0,0
		c0-12,9.731-21.728,21.731-21.728h212.939C384.315,481.167,394.044,490.895,394.044,502.895L394.044,502.895z"/>
	<path fill="#FFFFFF" d="M394.044,585.465c0,11.999-9.729,21.73-21.731,21.73H159.374c-12,0-21.731-9.731-21.731-21.73l0,0
		c0-12,9.731-21.729,21.731-21.729h212.939C384.315,563.736,394.044,573.465,394.044,585.465L394.044,585.465z"/>
</g>
</svg>
