<?xml version="1.0" encoding="utf-8"?>
<!-- Generator: Adobe Illustrator 15.0.0, SVG Export Plug-In . SVG Version: 6.00 Build 0)  -->
<!DOCTYPE svg PUBLIC "-//W3C//DTD SVG 1.1//EN" "http://www.w3.org/Graphics/SVG/1.1/DTD/svg11.dtd">
<svg version="1.1" id="Layer_1" xmlns="http://www.w3.org/2000/svg" xmlns:xlink="http://www.w3.org/1999/xlink" x="0px" y="0px"
	 width="406.173px" height="188.889px" viewBox="0 0 406.173 188.889" enable-background="new 0 0 406.173 188.889"
	 xml:space="preserve">
<g>
	<path fill="#E8937B" d="M252.641,95.622l-0.407,0.237l-7.556,4.415l-0.683,0.399l0.031,0.792c0.065,1.584,0.099,3.2,0.119,4.805
		c0.019,1.605,0.021,3.215,0.004,4.821c-0.031,3.216-0.129,6.429-0.307,9.636c-0.174,3.205-0.43,6.404-0.802,9.584
		c-0.374,3.18-0.868,6.34-1.556,9.441c-0.348,1.549-0.747,3.084-1.225,4.581c-0.48,1.497-1.036,2.964-1.72,4.344
		c-0.681,1.378-1.494,2.678-2.497,3.733c-0.501,0.525-1.049,0.984-1.643,1.34c-0.148,0.088-0.299,0.172-0.451,0.248
		c-0.076,0.036-0.155,0.073-0.233,0.106l-0.116,0.051l-0.036,0.015l-0.026,0.008c-0.365,0.117-0.754,0.236-1.135,0.348
		c-3.064,0.903-6.184,1.672-9.32,2.313c-3.139,0.636-6.302,1.144-9.479,1.456c-3.174,0.307-6.367,0.427-9.518,0.187
		c-1.574-0.121-3.137-0.336-4.658-0.684s-3.004-0.832-4.378-1.512c-1.374-0.682-2.624-1.558-3.656-2.667
		c-1.083-1.142-2.073-2.363-2.935-3.673c-0.861-1.307-1.596-2.699-2.192-4.152c-0.601-1.453-1.071-2.967-1.444-4.51
		c-0.744-3.09-1.146-6.283-1.482-9.486c-0.328-3.209-0.594-6.433-0.91-9.654c-0.5-5.284-1.18-10.557-2.08-15.789
		c1.986,1.607,4.113,3.048,6.35,4.304c1.475,0.827,3.01,1.552,4.579,2.19c1.569,0.633,3.18,1.18,4.823,1.598
		c1.641,0.426,3.31,0.743,4.988,0.951c1.681,0.203,3.373,0.291,5.059,0.275c1.686-0.012,3.367-0.145,5.027-0.371
		s3.303-0.549,4.916-0.969c3.229-0.826,6.336-2.005,9.298-3.433c1.481-0.713,2.929-1.487,4.337-2.319
		c1.412-0.826,2.781-1.715,4.123-2.639c1.334-0.93,2.639-1.9,3.905-2.914c0.635-0.503,1.255-1.025,1.871-1.551
		c0.618-0.525,1.226-1.058,1.819-1.606c-0.68,0.437-1.359,0.872-2.043,1.3c-0.684,0.43-1.376,0.842-2.064,1.257
		c-1.381,0.825-2.775,1.62-4.189,2.372c-1.408,0.758-2.841,1.466-4.285,2.136c-1.445,0.662-2.907,1.284-4.387,1.843
		c-2.959,1.119-5.984,2.01-9.049,2.591c-1.533,0.286-3.074,0.502-4.615,0.628c-1.544,0.127-3.088,0.16-4.626,0.113
		c-1.536-0.049-3.065-0.199-4.579-0.439c-1.512-0.234-3.008-0.566-4.475-0.994c-1.467-0.431-2.91-0.936-4.316-1.535
		c-0.777-0.33-1.544-0.691-2.298-1.074c0.175-0.104,0.35-0.21,0.522-0.319c0.576-0.361,1.146-0.735,1.707-1.124
		c0.563-0.387,1.111-0.795,1.652-1.217c0.54-0.424,1.07-0.863,1.58-1.326c1.024-0.929,1.998-1.936,2.818-3.118
		c0.408-0.592,0.779-1.226,1.063-1.931c0.191-0.48,0.342-0.997,0.418-1.541c0.035-0.25,0.053-0.506,0.053-0.766l-0.005-1.683
		l-1.526,1.001l-0.125,0.079l-0.15,0.095c-0.102,0.063-0.207,0.122-0.316,0.182c-0.216,0.116-0.438,0.225-0.666,0.324
		c-0.454,0.199-0.922,0.371-1.398,0.5c-0.953,0.262-1.936,0.372-2.904,0.332c-0.969-0.035-1.926-0.223-2.846-0.543
		c-0.742-0.26-1.461-0.6-2.151-1.003l-0.474-1.499l-0.633-1.959l-0.638-1.958l-0.649-1.952l-0.564-1.695l-1.765,0.637
		c-1.054,0.381-2.094,0.807-3.113,1.282c-1.021,0.475-2.017,1.01-2.991,1.589c-0.973,0.583-1.919,1.215-2.832,1.91
		c-0.458,0.347-0.906,0.709-1.345,1.097c-0.218,0.193-0.435,0.391-0.651,0.6c-0.108,0.103-0.217,0.209-0.325,0.32l-0.165,0.171
		l-0.086,0.093l-0.105,0.118l-0.035,0.039l-0.351,0.391l-0.349,0.388l-0.271,0.303l0.85,1.271l0.094,0.139l0.11,0.164l0.188,0.271
		c0.085,0.119,0.17,0.238,0.256,0.355c0.041,0.057,0.083,0.113,0.124,0.17c0.191,0.258,0.385,0.514,0.583,0.764
		c0.063,0.084,0.13,0.166,0.194,0.25c0.047,0.059,0.095,0.117,0.144,0.177l0.898,5.095l1.393,7.771l1.398,7.77l1.418,7.766
		c0.952,5.176,1.885,10.355,2.854,15.528l2.883,15.522l0.086,0.453l0.434,0.183c0.588,0.246,1.151,0.464,1.729,0.684
		c0.574,0.217,1.151,0.426,1.728,0.63c1.157,0.405,2.321,0.786,3.491,1.148c2.342,0.719,4.707,1.358,7.096,1.911
		c4.772,1.108,9.642,1.865,14.56,2.157c4.914,0.287,9.893,0.088,14.78-0.855c2.44-0.475,4.854-1.137,7.194-2.023
		c2.338-0.888,4.602-2.004,6.723-3.354l0.434-0.273l0.109-0.508c1.1-5.153,2.191-10.303,3.256-15.461
		c1.066-5.156,2.121-10.316,3.152-15.481c1.026-5.167,2.034-10.337,2.997-15.522c0.481-2.59,0.952-5.186,1.39-7.791
		c0.22-1.302,0.434-2.607,0.635-3.918c0.099-0.647,0.195-1.293,0.283-1.945c0.026-0.182,0.05-0.363,0.073-0.545
		c0.024-0.179,0.048-0.358,0.07-0.537c0.039-0.313,0.076-0.626,0.11-0.941l0.203-1.85l0.075-0.674l0.01-0.083L252.641,95.622z"/>
	<path fill="#E8937B" d="M178.989,56.166c0.371-1.21,0.76-2.407,1.202-3.581c0.437-1.176,0.898-2.337,1.407-3.473
		c2.007-4.554,4.522-8.822,7.531-12.574c0.756-0.935,1.534-1.842,2.354-2.7c0.811-0.866,1.662-1.684,2.536-2.46
		c0.876-0.774,1.785-1.499,2.719-2.17c0.938-0.667,1.897-1.286,2.888-1.833c0.99-0.548,1.999-1.039,3.035-1.449
		c1.033-0.416,2.088-0.76,3.157-1.025c1.068-0.273,2.154-0.462,3.249-0.58c0.548-0.061,1.096-0.101,1.648-0.121
		c0.275-0.011,0.551-0.017,0.828-0.017l0.434,0.002l0.418,0.005c4.568,0.099,9.111,1.191,13.341,3.128
		c4.231,1.938,8.149,4.698,11.565,8.055c3.414,3.361,6.332,7.314,8.592,11.7c1.133,2.193,2.09,4.498,2.869,6.892
		c0.447,1.378,0.829,2.786,1.151,4.221c-0.364,0.831-0.699,1.667-1.023,2.507c-0.473,1.249-0.917,2.502-1.333,3.763
		c-0.829,2.52-1.554,5.064-2.199,7.625l-0.063,0.245l0.029,0.317l0.04,0.409l0.044,0.383c0.033,0.252,0.069,0.503,0.109,0.754
		c0.078,0.502,0.179,0.999,0.289,1.496c0.228,0.993,0.519,1.983,0.917,2.968c0.2,0.491,0.426,0.982,0.694,1.466
		c0.267,0.486,0.576,0.966,0.946,1.431c0.37,0.463,0.809,0.913,1.343,1.304c0.195,0.145,0.408,0.279,0.632,0.4
		c-0.031,0.996-0.03,1.998,0.008,3.004c0.034,0.727,0.072,1.457,0.149,2.191c0.065,0.625,0.139,1.251,0.258,1.885
		c0.021,0.11,0.043,0.221,0.067,0.332c0.357-0.673,0.646-1.356,0.923-2.041c0.089-0.218,0.173-0.437,0.255-0.657
		c0.173-0.468,0.334-0.937,0.493-1.407c0.114-0.345,0.223-0.692,0.327-1.039c0.288-0.957,0.541-1.917,0.765-2.881l0.359-1.204
		c-0.033,0.01-0.063,0.02-0.089,0.028l0.003-0.008l0.061-0.268l-0.38-0.161l-1.072-0.456c-0.221-0.093-0.433-0.228-0.646-0.424
		c-0.215-0.193-0.428-0.447-0.63-0.739c-0.404-0.587-0.754-1.324-1.05-2.104c-0.297-0.783-0.547-1.618-0.759-2.471
		c-0.109-0.426-0.202-0.859-0.294-1.292c-0.044-0.215-0.085-0.434-0.125-0.649l-0.058-0.322l-0.015-0.094
		c0.451-2.479,0.827-4.974,1.11-7.489c0.146-1.319,0.266-2.645,0.354-3.975c0.01-0.164,0.021-0.329,0.03-0.494
		c0.053,0.296,0.103,0.595,0.151,0.893c0.414-2.567,0.481-5.211,0.261-7.849c-0.215-2.642-0.734-5.275-1.507-7.848
		c-1.552-5.145-4.158-10.03-7.628-14.284c-1.73-2.132-3.684-4.098-5.821-5.868c-2.146-1.762-4.472-3.328-6.965-4.625
		c-1.241-0.652-2.526-1.235-3.843-1.747c-1.313-0.516-2.662-0.95-4.031-1.315c-2.742-0.727-5.58-1.133-8.427-1.204l-0.543-0.01
		l-0.255-0.002l-0.275,0.002c-0.363,0.001-0.73,0.011-1.094,0.028c-0.73,0.031-1.461,0.088-2.188,0.174
		c-1.456,0.171-2.897,0.458-4.31,0.844c-1.411,0.393-2.789,0.887-4.117,1.476c-1.324,0.594-2.607,1.27-3.822,2.033
		c-1.218,0.763-2.381,1.595-3.474,2.495c-1.098,0.897-2.13,1.856-3.103,2.862c-1.945,2.011-3.643,4.207-5.111,6.516
		c-1.473,2.306-2.717,4.727-3.749,7.215c-1.034,2.488-1.858,5.044-2.468,7.639c-0.296,1.298-0.555,2.603-0.748,3.914
		c-0.188,1.313-0.34,2.626-0.41,3.944c-0.154,2.632-0.076,5.272,0.348,7.839C177.681,61.076,178.26,58.588,178.989,56.166z"/>
	<path fill="#E8937B" d="M231.942,74.708l0.024-0.009c5.213-2.318,5.639-11.855,5.655-12.26l0.002-0.028l-0.004-0.028
		c-0.398-4.577-2.854-7.144-4.842-8.491c-2.146-1.455-4.177-1.825-4.263-1.84l-0.035-0.004c-4.315-0.409-7.667,0.755-9.933,3.448
		c-4.88,5.797-3.086,16.558-3.006,17.014l0.041,0.243l0.23,0.091c4.098,1.639,7.98,2.47,11.542,2.47
		C230.286,75.314,231.875,74.733,231.942,74.708z"/>
	<path fill="#E8937B" d="M233.958,121.424c0.602-1.56,1.18-3.13,1.727-4.716c0.543-1.587,1.061-3.187,1.495-4.828
		c-1.026,1.354-1.968,2.745-2.888,4.147c-0.916,1.406-1.797,2.828-2.659,4.26c-0.426,0.719-0.849,1.439-1.269,2.16
		c-0.41,0.727-0.83,1.447-1.233,2.177c-0.399,0.731-0.81,1.458-1.203,2.192c-0.304,0.559-0.603,1.123-0.897,1.686
		c-0.094,0.174-0.184,0.348-0.275,0.52l-4.662,8.905l7.632-6.804l0.143-0.127l0.171-0.146c0.041-0.033,0.08-0.065,0.119-0.098
		c0.078-0.064,0.156-0.126,0.236-0.188c0.238-0.188,0.482-0.363,0.725-0.52c0.242-0.154,0.481-0.295,0.705-0.402
		c0.225-0.107,0.434-0.181,0.586-0.216c0.074-0.019,0.131-0.022,0.168-0.024c0.035,0.048,0.094,0.139,0.145,0.268
		c0.076,0.177,0.148,0.413,0.207,0.674c0.113,0.527,0.179,1.146,0.205,1.783c0.035,0.641,0.012,1.205-0.066,1.803
		c-0.081,0.593-0.213,1.19-0.395,1.787c-0.182,0.596-0.421,1.185-0.689,1.771c-0.268,0.586-0.578,1.164-0.922,1.732
		c-0.339,0.568-0.705,1.131-1.1,1.68c-0.785,1.102-1.661,2.164-2.592,3.197c-1.869,2.057-3.937,3.992-6.127,5.854
		c0.676-0.256,1.33-0.563,1.977-0.883c0.646-0.324,1.283-0.67,1.908-1.035c1.25-0.734,2.464-1.543,3.621-2.441
		c1.159-0.897,2.267-1.883,3.293-2.974c0.511-0.549,1.006-1.118,1.471-1.724c0.46-0.605,0.895-1.242,1.291-1.911
		c0.4-0.669,0.746-1.38,1.047-2.122c0.299-0.742,0.544-1.521,0.705-2.33c0.081-0.404,0.145-0.814,0.184-1.229
		c0.019-0.192,0.035-0.465,0.042-0.617l0.012-0.305l0.009-0.293c0.011-0.785-0.016-1.592-0.17-2.463
		c-0.078-0.437-0.188-0.891-0.377-1.373c-0.19-0.479-0.457-1.005-0.924-1.508c-0.232-0.249-0.518-0.486-0.844-0.678
		s-0.691-0.33-1.049-0.408c-0.356-0.082-0.704-0.099-1.023-0.086c-0.045,0.002-0.092,0.004-0.135,0.01
		c0.255-0.609,0.501-1.221,0.755-1.83C233.347,122.979,233.654,122.202,233.958,121.424z"/>
	<path fill="#E8937B" d="M205.379,91.491l-0.104,0.974l0.8-0.567c0.02-0.013,1.9-1.319,4.854-1.319c1.974,0,3.979,0.574,5.959,1.704
		l1.602,0.917l-11.421-17.383L205.379,91.491z"/>
	<path fill="#E8937B" d="M191.341,63.198c-0.762,0-1.553,0.087-2.354,0.26l-0.064,0.015l-0.057,0.032
		c-0.07,0.038-1.699,0.972-2.613,3.691c-1.189,3.534-0.649,8.285,1.605,14.12l0.1,0.26l0.277,0.022
		c0.021,0.002,0.517,0.04,1.336,0.04c3.103,0,10.674-0.57,13.977-5.852l0.1-0.161l-0.047-0.183
		c-0.032-0.125-0.801-3.079-2.675-6.081C198.407,65.33,195.094,63.198,191.341,63.198z"/>
	<path fill="#E8937B" d="M164.769,119.124c-1.776,0.082-3.496,0.949-5.113,2.576l-0.829,0.834l-0.233-7.541
		c-2.451,1.311-10.511,5.342-17.59,5.668c-2.656,0.123-4.902-0.303-6.674-1.264c-2.081-1.127-3.53-2.998-4.305-5.559l-0.16-0.527
		l0.539-0.115c2.764-0.586,5.62-1.604,8.519-3.033l-18.642,0.73l-0.107-0.045c-13.279-5.751-19.984-12.742-23.27-17.594
		c-2.264-3.34-3.262-6.126-3.697-7.77c-3.657,10.436,11.125,27.1,11.281,27.274l1.236,1.378l-1.766-0.557
		c-8.133-2.569-15.762-7.229-22.672-13.846c-5.518-5.283-10.594-11.821-15.084-19.431c-7.641-12.946-10.994-24.685-11.028-24.802
		l-0.575-2.046l1.437,1.565c6.799,7.411,18.562,11.019,27.233,12.741c9.438,1.875,17.361,1.98,17.439,1.981l0.092,0.001l0.085,0.032
		c4.769,1.837,13.763,2.464,26.733,1.865c12.141-0.561,23.439-2.041,23.553-2.055l0.631-0.083l-0.062,0.634
		c-1.376,14.159,4.466,25.745,9.606,32.972c4.149,5.831,8.513,9.833,10.503,11.521l-1.177-5.426
		c-1.016-0.457-4.68-2.443-8.209-8.568c-2.357-4.092-4.174-9.207-5.396-15.205c-1.482-7.269-2.097-15.867-1.824-25.566
		c-2.963,1.26-14.517,5.715-31.522,6.5c-0.002,0-0.003,0-0.003,0c-12.449,0.573-25.143-0.902-37.729-4.386
		c-15.377-4.256-30.596-11.531-45.261-21.633c2.121,5.065,9.29,21.468,19.626,37.548c7.247,11.28,14.609,20.193,21.881,26.497
		c8.75,7.581,17.379,11.371,25.664,11.271L98.28,97.575l0.88-0.502c3.645,5.919,11.62,15.959,24.07,16.697l0.204,0.012l0.139,0.15
		c7.006,7.57,13.853,11.257,20.348,10.957c0.002,0,0.002,0,0.002,0c4.48-0.207,8.756-2.372,12.711-6.435l1.508-1.548l-4.307,13.358
		c2.451-2.577,7.416-6.869,13.499-7.149c2.091-0.098,4.142,0.297,6.122,1.176C171.731,122.183,168.468,118.954,164.769,119.124z"/>
	<path fill="#E8937B" d="M342.373,61.98c-12.586,3.484-25.279,4.959-37.729,4.386c0,0-0.001,0-0.003,0
		c-17.006-0.785-28.56-5.24-31.522-6.5c0.272,9.699-0.342,18.297-1.824,25.566c-1.223,5.999-3.039,11.113-5.396,15.205
		c-3.529,6.125-7.193,8.111-8.209,8.568l-1.177,5.426c1.99-1.688,6.354-5.689,10.503-11.521c5.141-7.227,10.982-18.813,9.606-32.972
		l-0.062-0.634l0.631,0.083c0.113,0.014,11.412,1.494,23.553,2.055c12.971,0.599,21.965-0.028,26.733-1.865l0.085-0.032l0.092-0.001
		c0.078-0.001,8.002-0.107,17.439-1.981c8.672-1.722,20.435-5.33,27.233-12.741l1.437-1.565l-0.575,2.046
		c-0.034,0.117-3.388,11.856-11.028,24.802c-4.49,7.61-9.566,14.147-15.084,19.431c-6.91,6.617-14.539,11.276-22.672,13.846
		l-1.766,0.557l1.236-1.378c0.156-0.175,14.938-16.839,11.281-27.274c-0.436,1.644-1.434,4.429-3.697,7.77
		c-3.285,4.852-9.99,11.843-23.27,17.594l-0.107,0.045l-18.642-0.73c2.898,1.43,5.755,2.447,8.519,3.033l0.539,0.115l-0.16,0.527
		c-0.774,2.561-2.224,4.432-4.305,5.559c-1.771,0.961-4.018,1.387-6.674,1.264c-7.079-0.326-15.139-4.357-17.59-5.668l-0.233,7.541
		l-0.829-0.834c-1.617-1.627-3.337-2.494-5.113-2.576c-3.699-0.17-6.963,3.06-8.688,5.168c1.98-0.879,4.031-1.273,6.122-1.176
		c6.083,0.28,11.048,4.572,13.499,7.149l-4.307-13.358l1.508,1.548c3.955,4.063,8.23,6.228,12.711,6.435c0,0,0,0,0.002,0
		c6.495,0.3,13.342-3.387,20.348-10.957l0.139-0.15l0.204-0.012c12.45-0.738,20.426-10.778,24.07-16.697l0.88,0.502l-9.619,18.088
		c8.285,0.101,16.914-3.689,25.664-11.271c7.271-6.304,14.634-15.217,21.881-26.497c10.336-16.08,17.505-32.483,19.626-37.548
		C372.969,50.449,357.75,57.725,342.373,61.98z"/>
</g>
</svg>
