<?xml version="1.0" encoding="utf-8"?>
<!-- Generator: Adobe Illustrator 15.0.0, SVG Export Plug-In . SVG Version: 6.00 Build 0)  -->
<!DOCTYPE svg PUBLIC "-//W3C//DTD SVG 1.1//EN" "http://www.w3.org/Graphics/SVG/1.1/DTD/svg11.dtd">
<svg version="1.1" id="Emoji_neutral" xmlns="http://www.w3.org/2000/svg" xmlns:xlink="http://www.w3.org/1999/xlink" x="0px"
	 y="0px" width="512px" height="566.972px" viewBox="0 229.604 512 566.972" enable-background="new 0 229.604 512 566.972"
	 xml:space="preserve">
<g>
	<path fill="#67B0D1" d="M213.563,446.914c0,22.359-18.127,40.478-40.485,40.478c-22.35,0-40.469-18.119-40.469-40.478
		c0-22.35,18.119-40.477,40.469-40.477C195.436,406.437,213.563,424.564,213.563,446.914L213.563,446.914z M213.563,446.914"/>
	<path fill="#67B0D1" d="M379.392,446.914c0,22.359-18.118,40.478-40.47,40.478c-22.357,0-40.484-18.119-40.484-40.478
		c0-22.35,18.127-40.477,40.484-40.477C361.273,406.437,379.392,424.564,379.392,446.914L379.392,446.914z M379.392,446.914"/>
	<rect x="168.787" y="581.855" fill="#67B0D1" width="174.426" height="29.071"/>
	<path fill="#67B0D1" d="M89.019,745.657h333.962c36.162,0,65.586-29.424,65.586-65.586V346.109
		c0-36.17-29.424-65.586-65.586-65.586H89.019c-36.171,0-65.586,29.416-65.586,65.586v333.962
		C23.433,716.233,52.848,745.657,89.019,745.657L89.019,745.657z M52.504,346.109c0-20.138,16.386-36.515,36.515-36.515h333.962
		c20.138,0,36.515,16.377,36.515,36.515v333.962c0,20.137-16.377,36.515-36.515,36.515H89.019
		c-20.129,0-36.515-16.378-36.515-36.515V346.109z M52.504,346.109"/>
</g>
</svg>
