<?xml version="1.0" encoding="iso-8859-1"?>
<!-- Generator: Adobe Illustrator 19.0.0, SVG Export Plug-In . SVG Version: 6.00 Build 0)  -->
<svg version="1.1" id="Capa_1" xmlns="http://www.w3.org/2000/svg" xmlns:xlink="http://www.w3.org/1999/xlink" x="0px" y="0px"
	 viewBox="0 0 490 490" style="enable-background:new 0 0 490 490;" xml:space="preserve">
<g>
	<path d="M245,248.479c-60.977,0-110.409,49.432-110.409,110.409h220.818C355.409,297.911,305.977,248.479,245,248.479z"/>
	<circle cx="157.651" cy="175.288" r="42.642"/>
	<circle cx="332.349" cy="175.289" r="42.642"/>
	<path d="M420.914,0H69.086C30.999,0,0,30.999,0,69.086v351.829C0,459.001,30.999,490,69.086,490h351.829
		C459.001,490,490,459.001,490,420.914V69.086C490,30.999,459.001,0,420.914,0z M459.375,420.914
		c0,21.204-17.257,38.461-38.461,38.461H69.086c-21.204,0-38.461-17.257-38.461-38.461V69.086c0-21.204,17.256-38.461,38.461-38.461
		h351.829c21.204,0,38.461,17.257,38.461,38.461V420.914z"/>
</g>
<g>
</g>
<g>
</g>
<g>
</g>
<g>
</g>
<g>
</g>
<g>
</g>
<g>
</g>
<g>
</g>
<g>
</g>
<g>
</g>
<g>
</g>
<g>
</g>
<g>
</g>
<g>
</g>
<g>
</g>
</svg>
